<?xml version="1.0" standalone="no"?>
<!DOCTYPE svg PUBLIC "-//W3C//DTD SVG 1.1//EN" "http://www.w3.org/Graphics/SVG/1.1/DTD/svg11.dtd" >
<svg xmlns="http://www.w3.org/2000/svg">
<metadata>Generated by IcoMoon</metadata>
<defs>
<font id="icomoon" horiz-adv-x="1024">
<font-face units-per-em="1024" ascent="960" descent="-64" />
<missing-glyph horiz-adv-x="1024" />
<glyph unicode="&#x20;" horiz-adv-x="512" d="" />
<glyph unicode="&#xe900;" glyph-name="der" d="M1025.365 446.635c0 282.453-229.035 511.488-511.488 511.488s-511.488-229.035-511.488-511.488 229.035-511.488 511.488-511.488 511.488 229.035 511.488 511.488zM613.547 446.635l-204.117-205.141c-5.291-5.291-13.824-5.291-19.115 0s-5.291 13.824 0 19.115l191.147 192.512c3.072 3.072 3.072 8.021 0 11.093l-190.976 192.512c-5.291 5.291-5.291 13.824 0 19.115v0c5.291 5.291 13.824 5.291 19.115 0l203.947-205.312c8.533-8.704 8.192-14.848 0-23.893z" />
<glyph unicode="&#xe901;" glyph-name="izq" d="M512.342-63.658c282.583 0 511.658 229.075 511.658 511.658s-229.075 511.658-511.658 511.658c-282.583 0-511.658-229.075-511.658-511.658s229.075-511.658 511.658-511.658zM412.677 471.933l203.945 205.313c5.299 5.299 13.847 5.299 19.147 0v0c5.299-5.299 5.299-13.847 0-19.147l-191.124-192.491c-3.077-3.077-3.077-8.035 0-11.112l191.295-192.491c5.299-5.299 5.299-13.847 0-19.147s-13.847-5.299-19.147 0l-204.116 205.142c-8.206 9.060-8.548 15.215 0 23.933z" />
<glyph unicode="&#xe902;" glyph-name="telephone" d="M624.955 376.511c-14.288 14.106-32.129 14.106-46.328 0-10.832-10.743-21.662-21.48-32.312-32.405-2.915-3.004-5.373-3.64-8.92-1.635-7.009 3.822-14.475 6.915-21.208 11.102-31.405 19.751-57.712 45.146-81.010 73.729-11.56 14.199-21.849 29.399-29.040 46.51-1.453 3.458-1.182 5.733 1.64 8.556 10.832 10.471 21.391 21.209 32.041 31.951 14.835 14.929 14.835 32.404-0.090 47.423-8.466 8.555-16.932 16.929-25.395 25.484-8.738 8.738-17.386 17.57-26.218 26.218-14.288 13.924-32.129 13.924-46.329-0.093-10.924-10.742-21.39-21.755-32.493-32.311-10.289-9.743-15.476-21.667-16.569-35.592-1.728-22.667 3.823-44.052 11.654-64.898 16.018-43.147 40.413-81.466 69.995-116.599 39.96-47.516 87.653-85.107 143.449-112.232 25.124-12.196 51.156-21.573 79.462-23.12 19.48-1.093 36.409 3.822 49.973 19.023 9.284 10.378 19.751 19.844 29.582 29.764 14.565 14.747 14.653 32.586 0.182 47.151-17.293 17.386-34.679 34.681-52.067 51.974v0zM607.573 449.058l33.587 5.733c-5.28 30.858-19.845 58.799-41.965 81.009-23.392 23.39-52.974 38.137-85.56 42.688l-4.734-33.768c25.214-3.551 48.152-14.929 66.268-33.040 17.111-17.111 28.306-38.778 32.404-62.622v0zM660.093 595.058c-38.778 38.773-87.84 63.258-141.996 70.813l-4.733-33.768c46.787-6.556 89.201-27.761 122.698-61.169 31.764-31.764 52.609-71.906 60.165-116.053l33.587 5.738c-8.827 51.151-32.948 97.574-69.721 134.44v0z" />
<glyph unicode="&#xe903;" glyph-name="earth" d="M1019.093 511.157c-9.458 85.952-41.087 164.478-92.239 234.44-82.409 112.653-192.622 181.53-330.25 205.509-27.441 4.775-55.505 6.018-83.28 8.894-1.846 0-3.68 0-5.513 0-25.95-2.841-52.012-4.722-77.782-8.682-264.628-40.608-455.956-291.175-425.706-557.75 14.434-127.239 67.733-235.746 162.353-322.283 112.498-102.904 246.135-147.025 397.64-132.63 116.276 11.083 217.739 57.975 301.366 139.8 121.446 118.925 171.953 264.295 153.41 432.701zM911.269 249.168c-12.937 22.559-29.268 54.012-36.564 80.856-10.601 38.976-36.053 1.318-38.179-24.136s-19.087-44.542-53.030-6.36c-33.942 38.177-40.305 29.701-50.906 29.701s-29.691-25.45-25.452-144.241c3.021-84.809 36.478-98.267 58.339-104.42-40.591-27.889-87.233-49.861-139.581-63.158-200.078-50.78-404.308 41.434-499.728 224.636-88.898 170.7-45.587 363.862 44.783 470.176 2.431-19.121 4.811-36.297 6.791-53.541 5.387-47.077 1.323-93.539-8.282-139.815-2.052-9.861-1.337-21.095 1.323-30.795 1.447-5.296 9.432-11.552 14.95-12.075 4.344-0.423 11.924 6.463 13.684 11.634 3.181 9.245 3.312 19.611 4.289 29.548 0.702 7.010 0.715 14.113 1.198 25.109 7.176-5.816 12.41-9.344 16.76-13.719 11.085-11.161 22.296-22.271 32.412-34.27 4.468-5.326 9.073-12.782 8.949-19.195-0.28-13.719 5.74-23.049 13.093-33.822 8.171-11.981 11.85-27.044 17.107-40.915 2.199-5.816 2.66-12.378 5.282-17.971 5.599-11.979 14.062-20.183 28.61-21.077 15.305-0.969 21.034-6.909 23.234-22.567-3.915-0.448-7.811-0.971-11.72-1.331-18.667-1.779-27.918-10.353-27.18-29.182 1.459-37.395 14.95-70.067 42.708-96.043 7.649-7.172 15.776-13.833 23.209-21.177 16.976-16.766 22.899-36.463 14.739-59.617-3.909-11.037-9.266-21.873-10.999-33.284-1.764-11.594-1.777-24.197 0.908-35.542 2.784-11.806 1.59-37.63 13.783-35.494 21.569 3.791 33.965-0.46 35.643 23.688 0.317 4.6-0.038 5.17-1.262 9.42-6.413 22.668 22.706 87.020 40.179 98.753 14.926 10.042 29.895 20.259 43.423 32.052 19.504 16.951 28.236 38.85 20.040 64.35-7.712 23.999 1.31 41.621 18.089 57.071 17.115 15.746 28.337 33.892 27.168 58.127s-17.027 41.735-37.693 39.247c-10.105-1.192-19.792-6.039-29.643-9.357-14.441-4.884-28.534-11.72-43.356-14.38-20.774-3.68-33.574 9.893-42.841 26.373-7.456 13.249-9.912 14.266-22.855 6.013-10.919-6.985-21.817-14.018-33.127-20.332-11.749-6.562-18.152-4.127-27.21 5.692-5.357 5.793-12.775 9.868-19.661 14.043-4.952 3.032-11.646 3.867-15.616 7.668-5.32 5.145-12.74 12.775-11.987 18.354 0.877 6.55 8.463 14.748 15.080 17.431 11.402 4.624 24.359 5.37 36.587 8.028 6.512 1.417 13.118 2.891 19.275 5.32 8.427 3.362 8.072 8.898 1.621 14.094-3.181 2.555-7.115 4.35-10.95 5.891-18.642 7.506-37.389 14.685-56.020 22.22-4.63 1.859-9.19 4.144-13.347 6.861-11.714 7.698-13.124 16.173-2.498 25.551 41.957 37.010 90.967 47.847 134.39-1.325 13.452-15.229 22.576-34.22 35.278-50.202 9.992-12.603 21.495-24.434 34.195-34.159 5.233-3.995 17.002-4.674 22.855-1.466 8.717 4.773 9.022 15.652 4.636 24.725-3.791 7.881-8.246 15.648-13.602 22.544-24.67 31.785-22.973 93.726 25.347 119.569 16.163 8.656 32.466 17.773 40.185 40.994-9.258-2.504-15.971-4.119-22.546-6.133-36.693-11.365-11.148 16.007 5.732 20.78 10.252 2.914-9.172 10.77-9.172 10.77 0.46 0.801 12.899 4.35 26.733 10.248 9.518 4.045 19.249 8.6 27.155 15.038 5.122 4.201 7.096 12.229 10.465 18.543-0.856 0.995-1.69 1.964-2.559 2.958-9.695-1.306-19.378-2.74-29.096-3.835-16.468-1.844-20.332 1.386-21.859 17.996-1.058 11.341-12.616 17.523-23.408 11.707-7.302-3.959-13.616-9.699-20.643-14.241-16.224-10.509-28.354-6.308-34.718 11.812-3.791 10.786-9.071 12.826-18.995 6.785-4.992-3.032-9.155-7.462-14.23-10.296-8.322-4.649-16.783-9.315-25.719-12.473-8.705-3.082-19.188-5.32-25.111 4.226-6.362 10.265-0.801 20.259 7.222 26.695 9.973 8.005 21.47 14.218 32.691 20.507 15.984 8.997 32.91 16.48 48.345 26.291 11.329 7.229 16.28 19.010 12.616 32.91-3.095 11.733-10.944 15.702-21.812 10.322-8.974-4.455-16.815-11.428-26.043-15.019-6.743-2.584-15.145-2.611-22.384-1.337-2.672 0.473-5.513 7.878-5.587 12.178-0.050 2.479 4.977 6.785 8.183 7.309 22.296 3.474 44.691 6.413 67.117 8.968 2.965 0.324 7.42-1.51 9.279-3.877 14.813-18.698 35.481-27.771 57.224-34.245 18.267-5.425 20.915-2.841 23.427 16.325 23.463 5.524 47.313 16.407 70.925 1.516 13.099-8.244 25.042-18.749 36.129-29.628 2.748-2.708 1.070-11.085-0.248-16.48-1.739-7.25-5.753-13.951-7.605-21.201-3.579-14.050 5.505-25.029 20.021-24.8 4.586 0.099 9.159 1.039 13.77 1.268 13.41 0.627 18.171-4.506 16.941-18.047-1.741-19.188 1.453-21.495 20.816-18.219 5.566 0.938 11.993-1.59 17.672-3.581 3.379-1.192 6.001-4.43 9.010-6.703 18.007-13.646 31.777-8.532 37.048 13.795 0.57 2.431 0.496 5.027 0.995 7.483 2.088 10.017 7.744 12.595 14.502 5.475 14.319-15.162 27.752-31.169 42.279-47.7-15.61-14.317-16.131-31.716-12.675-48.766 3.839-18.968-1.156-35.446-8.637-52.155-7.17-16.007-15.048-31.915-19.836-48.663-7.157-25.137 0.969-36.619 26.497-42.182 24.359-5.317 28.347-10.214 29.268-34.029 1.23-32.481 17.91-54.899 46.407-69.205 6.327-3.156 13.049-5.555 19.51-8.24-3.194-50.071-17.487-102.182-41.945-151.621z" />
<glyph unicode="&#xe904;" glyph-name="pasar" d="M325.588 64.467c-11.737 0-23.478 4.462-32.469 13.339-18.116 17.935-18.251 47.181-0.316 65.298l263.329 265.918-263.487 268.667c-17.844 18.207-17.552 47.406 0.631 65.251 18.207 17.891 47.406 17.529 65.251-0.631l295.322-301.157c17.663-18.026 17.596-46.866-0.158-64.801l-295.322-298.229c-9.011-9.102-20.91-13.654-32.781-13.654z" />
<glyph unicode="&#xe905;" glyph-name="separador" d="M514.306 118.503v0c-4.876 0-8.823 3.947-8.823 8.823v547.25c0 4.876 3.947 8.823 8.823 8.823v0c4.876 0 8.823-3.947 8.823-8.823v-547.257c0-4.869-3.954-8.816-8.823-8.816z" />
<glyph unicode="&#xe906;" glyph-name="manos" d="M1014.896 742.812c-5.688 4-12.98 4.98-19.52 2.562l-173.916-63.25c-21.562-7.834-38.73-23.624-48.334-44.458-1.8-3.906-2.982-7.964-4.166-12.016-29.864 8.49-85.364 26.222-140.52 54.64-83.346 42.946-147.020 21.734-201.632-19.922-27.672-0.544-65.812-3.816-103.304-7.12-23.916-2.11-46.518-4.052-64.846-5.17-0.45 11.008-3.026 21.932-7.778 32.252-9.604 20.834-26.77 36.624-48.334 44.458l-173.916 63.25c-6.52 2.396-13.854 1.416-19.52-2.562-5.708-4-9.104-10.52-9.104-17.48v-426.666c-0.006-11.788 9.536-21.33 21.328-21.33h62.312c26.502 0 51.158 12.5 67.096 32.684 8.49-6.456 18.546-14.016 29.092-21.934 24.896-18.73 52.146-39.166 64.104-49.188 79.438-66.5 174.938-138.312 193.958-150.812 17.77-11.666 49.77-24.084 74.104-24.084 9.52 0 33.5 0 50.334 14.23 17.354-6.812 36.062-6.48 53.458 1.188 17.354 7.646 31.396 22.062 39.562 39.584 16.666-3.416 35.812-0.916 53.166 7.792 16.27 8.146 28.25 20.48 34.666 34.896 15.416-1.416 31.876 3.604 46.604 14.876 21.044 16.086 30.68 39.842 27.954 63.278l54.114 29.938c15.848-21.482 41.036-35.112 68.494-35.112h62.312c11.792 0 21.334 9.542 21.334 21.334v426.662c0.002 6.96-3.394 13.48-9.102 17.48zM608.896 642.374c66.328-34.198 131.79-53.534 159.27-60.838 0.794-3.196 1.37-6.424 2.542-9.558l82.834-220.902-53.046-29.346c-28.424 38.024-90.040 88.898-150.078 138.372-40.020 32.98-77.812 64.124-102 88.312-6.666 6.624-16.896 8.124-25.146 3.73-21.73-11.646-31.52-16.458-56.062-18.916-6.542-0.666-12.416-4.292-15.916-9.854-16.73-26.542-63.23-39.166-77.98-29.958-8.376 5.25-10 10.584-10.458 14.646-2.062 18.146 16.312 49.562 46.792 80.062 75.476 75.48 129.436 90.25 199.248 54.25zM83.646 362.666h-40.98v374.876l145.292-52.834c10.792-3.938 19.376-11.834 24.166-22.25 4.812-10.416 5.23-22.084 1.208-32.812l-89.728-239.292c-6.208-16.562-22.27-27.688-39.958-27.688zM763.896 253.124c-7.23-5.542-17.354-8.624-21.854-4.124-0.23 0.23-0.586 0.208-0.822 0.428-0.408 0.378-0.61 0.888-1.052 1.24-15.25 12.042-83.584 81.958-125.812 126-8.146 8.52-21.666 8.834-30.146 0.646-8.52-8.146-8.812-21.646-0.646-30.146 9.912-10.346 89.48-93.216 121.326-122.198-2.378-9.368-11.062-15.152-15.472-17.364-13.666-6.854-27.916-5.708-33.25-0.75-0.158 0.148-0.394 0.14-0.558 0.284-0.26 0.232-0.376 0.558-0.652 0.778-25.584 20.438-89.77 88.646-104.292 104.438-7.98 8.688-21.458 9.23-30.146 1.27-8.666-7.98-9.25-21.48-1.27-30.146 0.7-0.758 63.604-68.612 98.934-100.13-3.472-9.976-10.546-18.238-19.622-22.244-6.698-2.976-17.174-4.502-29.144 4.344-30.636 25.976-92.118 91.422-104.21 104.364-8.020 8.624-21.562 9.062-30.146 1.020-8.604-8.042-9.062-21.542-1.020-30.146 14.336-15.344 56.71-60.256 88.922-90.666-3.598-0.438-7.376-0.688-10.964-0.688-14.124 0-38.396 9.020-50.666 17.084-14.958 9.834-108.876 79.916-189.98 147.834-12.27 10.292-40.27 31.354-65.896 50.604-13.734 10.31-26.388 19.816-35.714 26.99l79.876 213.028c20.734 0.906 48.376 3.296 77.63 5.876 16.546 1.458 33.11 2.88 48.938 4.112-24.328-24.974-60.498-69.704-55.73-111.632 2.188-19.084 12.624-34.98 30.23-45.98 34.854-21.812 99.374-3.52 130.458 34.708 20.062 2.896 33.624 8.020 48.416 15.354 25-23.5 58.52-51.124 93.73-80.146 61.292-50.5 130.77-107.75 149.146-139.854 10.228-17.854-3.958-30.688-8.542-34.188zM981.334 320h-40.98c-17.688 0-33.75 11.124-39.958 27.688l-89.73 239.27c-4.020 10.75-3.604 22.416 1.208 32.834 4.792 10.416 13.376 18.312 24.166 22.25l145.292 52.834v-374.876z" />
<glyph unicode="&#xe907;" glyph-name="libro" d="M587.511 528.565h-14.995v15.008c0 2.009-0.885 3.912-2.414 5.209s-3.556 1.853-5.533 1.525l-131.057-21.835c-3.294-0.547-5.707-3.396-5.707-6.733v-170.853c0-3.774 3.058-6.827 6.827-6.827h152.88c3.769 0 6.827 3.053 6.827 6.827v170.853c0 3.768-3.057 6.827-6.827 6.827v0zM441.458 515.956l117.405 19.56v-157.027l-117.405-19.55v157.018zM580.684 357.712h-63.494l49.618 8.261c3.293 0.547 5.707 3.396 5.707 6.733v142.205h8.168v-157.2zM534.378 504.884l-70.529-10.919c-3.725-0.578-6.276-4.068-5.698-7.792 0.52-3.374 3.427-5.782 6.738-5.782 0.346 0 0.697 0.026 1.054 0.080l70.524 10.925c3.724 0.573 6.279 4.062 5.703 7.79-0.578 3.725-4.063 6.276-7.792 5.698v0z" />
<glyph unicode="&#xe908;" glyph-name="sembrar" d="M182.322 162.268c0-11.046-8.954-20-20-20s-20 8.954-20 20c0 11.046 8.954 20 20 20s20-8.954 20-20zM581.308 734.098h113.43v-202.742c-5.276 0.338-10.582 0.524-15.914 0.524-52.562 0-102.814-16.204-145.314-46.858-8.958-6.46-10.984-18.96-4.522-27.92 6.462-8.958 18.962-10.988 27.92-4.522 35.646 25.708 77.806 39.298 121.916 39.298 10.662 0 21.202-0.844 31.556-2.43 0.858-0.19 1.736-0.326 2.632-0.404 62.238-10.348 117.274-48.56 148.468-104.862 3.652-6.59 10.476-10.31 17.512-10.31 3.278 0 6.604 0.808 9.674 2.51 9.662 5.354 13.154 17.526 7.8 27.188-34.608 62.462-93.858 106.226-161.73 121.91v64.67h97.678c60.646 0 109.988 49.34 109.988 109.988v53.96c0 11.044-8.954 20-20 20h-117.676c-26.564 0-50.958-9.468-69.988-25.204v60.128c0 78.542-63.894 142.436-142.434 142.436h-133.43c-11.046 0-20-8.956-20-20v-54.926c-0.002-78.538 63.894-142.434 142.434-142.434zM804.724 734.098h97.676v-33.96c0-38.59-31.396-69.988-69.988-69.988h-97.676v33.96c0.002 38.592 31.398 69.988 69.988 69.988zM478.874 911.46h113.43c56.482 0 102.434-45.952 102.434-102.436v-34.924h-113.43c-56.482 0-102.434 45.952-102.434 102.434v34.926zM1017.324 302.378c-17.456 39.534-63.82 57.488-103.356 40.042-0.1-0.044-0.198-0.090-0.298-0.134l-130.674-60.262c-10.032-4.626-14.412-16.508-9.788-26.538 4.626-10.032 16.508-14.41 26.538-9.788l130.514 60.188c19.326 8.444 41.942-0.352 50.47-19.666 8.546-19.358-0.25-42.058-19.606-50.606l-267.412-118.070c-42.372-18.71-90.468-17.624-131.954 2.99l-97.888 48.63c-52.16 25.914-112.634 27.282-165.908 3.76l-1.924-0.852-73.158 165.692 101.568 44.844c48.384 21.364 102.376 23.086 152.024 4.856l196.846-72.29c17.958-6.596 27.53-26.686 21.338-44.786-6.31-18.448-26.468-28.368-44.934-22.126l-152.22 51.486c-10.464 3.54-21.814-2.074-25.354-12.538s2.074-21.814 12.538-25.354l152.22-51.486c7.97-2.696 16.088-3.976 24.078-3.976 31.396 0 60.818 19.764 71.52 51.042 13.174 38.508-7.19 81.254-45.394 95.284l-196.846 72.29c-59.426 21.822-124.052 19.76-181.968-5.808l-102.222-45.134c-5.75 8.836-14.052 15.67-24.074 19.556-12.62 4.888-26.39 4.57-38.72-0.874l-131.306-57.532c-7.272-3.188-11.972-10.378-11.972-18.32v-352.358c0-6.946 3.604-13.394 9.52-17.036 3.204-1.97 6.836-2.964 10.48-2.964 3.084 0 6.174 0.712 9.016 2.148l254.92 128.778c12.122 5.514 21.432 15.372 26.25 27.81 4.014 10.36 4.518 21.494 1.546 32l2.384 1.052c42.376 18.71 90.47 17.618 131.956-2.992l97.888-48.63c52.158-25.914 112.63-27.284 165.908-3.758l267.414 118.070c39.532 17.458 57.494 63.826 40.040 103.36zM272.888 117.726c-1.030-2.658-3.032-4.756-5.64-5.906-0.318-0.14-0.63-0.29-0.94-0.446l-226.308-114.324v87.55l59.156 29.050c9.916 4.87 14.006 16.854 9.136 26.77s-16.858 14.006-26.768 9.136l-41.524-20.39v174.66l119.376 52.31c2.608 1.15 5.508 1.218 8.164 0.19 2.658-1.030 4.756-3.034 5.908-5.64l94.076-213.064c0.008-0.020 0.016-0.038 0.024-0.056l5.154-11.672c1.15-2.61 1.216-5.51 0.186-8.168z" />
<glyph unicode="&#xe909;" glyph-name="donation" d="M656.839 632.092c10.923-3.868 19.797-12.743 23.666-23.666 1.138-3.186 4.096-5.234 7.282-5.234 0.91 0 1.707 0.114 2.617 0.455 4.096 1.479 6.144 5.916 4.779 9.899-5.461 15.588-17.522 27.648-33.109 33.109-4.096 1.365-8.533-0.683-9.899-4.779-1.479-3.982 0.569-8.42 4.665-9.785v0zM585.728 417.735c1.138-0.683 2.389-0.91 3.755-0.91s2.617 0.341 3.755 0.91c88.405 48.242 136.078 127.545 136.078 177.721 0 47.104-38.343 85.447-85.447 85.447-33.109 0-63.488-19.342-77.483-49.38-1.82-3.868-0.114-8.533 3.755-10.354s8.533-0.114 10.354 3.755c11.492 24.576 36.295 40.391 63.374 40.391 38.571 0 69.86-31.403 69.86-69.86 0-45.625-46.421-118.101-124.245-162.020-77.824 43.918-124.245 116.395-124.245 162.020 0 38.571 31.403 69.86 69.86 69.86 9.785 0 19.115-1.934 27.989-5.803 3.982-1.707 8.533 0.114 10.24 3.982 1.707 3.982-0.114 8.533-3.982 10.24-10.809 4.779-22.3 7.168-34.247 7.168-47.104 0-85.447-38.343-85.447-85.447 0-50.176 47.673-129.479 136.078-177.721v0zM379.676 385.764h62.123c9.102 0 24.462-11.605 38.116-21.732 17.067-12.743 33.109-24.804 47.332-24.804h46.649c11.833 0 17.636-5.348 17.863-5.461 1.479-1.479 3.527-2.276 5.461-2.276s3.982 0.796 5.461 2.276c3.072 3.072 3.072 7.964 0 11.036-1.024 1.024-10.581 10.012-28.786 10.012h-46.649c-9.102 0-24.462 11.605-38.002 21.732-17.067 12.743-33.109 24.804-47.332 24.804h-62.123c-4.324 0-7.737-3.527-7.737-7.737-0.114-4.437 3.413-7.851 7.623-7.851v0zM333.141 432.299h-46.649c-4.324 0-7.737-3.527-7.737-7.737 0-4.324 3.527-7.737 7.737-7.737h46.649c4.324 0 7.737-3.527 7.737-7.737v-170.894c0-4.324-3.527-7.737-7.737-7.737h-46.649c-4.324 0-7.737-3.527-7.737-7.737 0-4.324 3.527-7.737 7.737-7.737h46.649c12.857 0 23.324 10.468 23.324 23.324v170.667c0 12.857-10.468 23.324-23.324 23.324v0zM317.554 265.387c0 6.372-5.234 11.605-11.605 11.605s-11.605-5.234-11.605-11.605c0-6.372 5.234-11.605 11.605-11.605 6.372-0.114 11.605 5.12 11.605 11.605zM721.806 369.152c-7.964 2.162-16.384 1.024-23.097-2.844l-89.429-43.463c-13.881-6.94-27.876-6.94-58.709-6.94-30.037 0-75.89 7.623-76.345 7.623-4.21 0.683-8.192-2.162-8.988-6.372-0.683-4.21 2.162-8.192 6.372-8.988 1.934-0.341 47.559-7.851 78.962-7.851 32.199 0 48.469 0 65.536 8.533l89.771 43.691c7.396 4.324 16.953 1.707 21.276-5.689 2.048-3.641 2.617-7.737 1.593-11.833-1.024-3.982-3.641-7.396-7.509-9.557l-105.017-65.308c-0.228-0.114-22.642-14.222-73.387-14.222-44.032 0-112.071 37.433-112.981 38.002-0.683 0.341-17.522 8.533-50.062 8.533-4.324 0-7.737-3.527-7.737-7.737 0-4.324 3.527-7.737 7.737-7.737 28.217 0 42.78-6.827 42.78-6.827 2.958-1.593 72.249-39.822 120.263-39.822 56.092 0 80.896 16.156 81.806 16.725l104.676 65.081c7.168 4.096 12.288 10.809 14.45 18.887s1.024 16.384-3.072 23.552c-4.21 7.282-10.923 12.402-18.887 14.564z" />
<glyph unicode="&#xe90a;" glyph-name="guitar" d="M376.832 378.596c-2.617 2.617-6.94 2.617-9.671 0-2.617-2.617-2.617-6.94 0-9.671l64.626-64.626c1.365-1.365 3.072-2.048 4.779-2.048s3.527 0.683 4.779 2.048c2.617 2.617 2.617 6.94 0 9.671l-64.512 64.626zM673.906 659.058c-1.252-0.341-2.389-0.91-3.3-1.82l-2.617-2.617-1.593 1.593c-2.617 2.617-6.94 2.617-9.671 0-2.617-2.617-2.617-6.94 0-9.671l1.593-1.593-7.282-7.282-1.593 1.593c-2.617 2.617-6.94 2.617-9.671 0-2.617-2.617-2.617-6.94 0-9.671l1.593-1.593-7.282-7.282-1.593 1.593c-2.617 2.617-6.94 2.617-9.671 0-2.617-2.617-2.617-6.94 0-9.671l2.958-2.958-10.24-20.366-73.387-70.77c-15.019 11.605-44.828 28.444-75.776 11.947-20.708-11.036-26.169-25.031-31.061-37.433-3.868-9.899-7.168-18.432-17.636-26.169-4.892-3.641-13.881-5.348-24.235-7.509-25.941-5.12-61.554-12.288-84.878-55.41-27.876-51.428 13.426-101.376 32.54-120.377l5.461-5.348c14.45-14.45 46.763-41.87 84.082-41.87 11.719 0 24.007 2.731 36.295 9.33 43.236 23.324 50.29 58.937 55.41 84.878 2.048 10.354 3.868 19.342 7.509 24.235 7.737 10.468 16.27 13.767 26.169 17.636 12.402 4.892 26.396 10.354 37.433 30.948 16.612 30.948-0.228 60.757-11.947 75.776l70.77 73.5 20.48 10.24 2.958-2.958c1.365-1.365 3.072-2.048 4.779-2.048s3.527 0.683 4.779 2.048c2.617 2.617 2.617 6.94 0 9.671l-1.593 1.593 7.282 7.282 1.593-1.593c1.365-1.365 3.072-2.048 4.779-2.048s3.527 0.683 4.779 2.048c2.617 2.617 2.617 6.94 0 9.671l-1.593 1.593 7.282 7.282 1.593-1.593c1.365-1.365 3.072-2.048 4.779-2.048s3.527 0.683 4.779 2.048c2.617 2.617 2.617 6.94 0 9.671l-1.593 1.593 2.617 2.617c0.91 0.91 1.593 2.048 1.82 3.3 0.228 0.796 4.324 19.456-12.174 35.954-10.809 10.809-22.528 12.743-29.582 12.743h-0.114c-3.413-0.114-5.803-0.683-6.030-0.683zM581.291 409.884c-8.647-16.156-18.773-20.139-30.379-24.69-10.354-4.096-22.073-8.647-32.199-22.3-5.461-7.282-7.509-17.636-9.899-29.696-4.892-24.576-11.036-55.182-48.583-75.548-43.349-23.438-87.381 13.198-104.22 30.151l-5.461 5.461c-16.839 16.839-53.589 60.871-30.151 104.22 20.252 37.547 50.972 43.691 75.548 48.583 11.947 2.389 22.414 4.437 29.696 9.899 13.653 10.126 18.204 21.845 22.187 32.199 4.551 11.719 8.533 21.732 24.69 30.379 23.211 12.402 46.421 0.114 59.392-9.444l-44.26-42.553c-0.683 0-1.252 0-1.934 0-11.605 0-22.528-4.551-30.72-12.743s-12.743-19.115-12.743-30.72c0-11.605 4.551-22.528 12.743-30.72s19.115-12.743 30.72-12.743c11.605 0 22.528 4.551 30.72 12.743s12.743 19.001 12.743 30.606c0 0.683 0 1.365 0 2.048l42.553 44.26c9.671-12.971 21.959-36.295 9.557-59.392zM489.7 452.551c6.485-0.796 12.516-3.755 17.294-8.42 4.665-4.665 7.623-10.695 8.42-17.294 0-0.114 0-0.114 0-0.228 0.114-1.252 0.228-2.389 0.228-3.641 0-7.964-3.072-15.474-8.761-21.049-5.575-5.575-13.084-8.761-21.049-8.761s-15.474 3.072-21.049 8.761c-5.575 5.575-8.761 13.084-8.761 21.049s3.072 15.474 8.761 21.049c5.575 5.575 13.084 8.761 21.163 8.761 1.252 0 2.389-0.114 3.527-0.228 0.114 0 0.228 0 0.228 0zM525.54 440.832c-2.162 4.779-5.12 9.102-8.875 12.971-3.755 3.755-8.192 6.713-12.857 8.875l117.419 112.981 17.408-17.408-113.095-117.419zM708.836 615.708l-5.803-5.803c0 0 0 0 0 0s0 0 0 0l-16.953-16.953c0 0 0 0 0 0s0 0 0 0l-16.156-16.156-20.48-10.24-19.911 20.025 10.24 20.48 38.912 38.912c3.755 0.228 12.971-0.114 21.504-8.647 8.533-8.647 8.988-17.863 8.647-21.618z" />
<glyph unicode="&#xe90b;" glyph-name="mail" d="M137.294 780.8v-580.647l363.781 290.405zM198.767 809.335l415.796-351.225 225.019 208.061zM854.42 633.722l-148.871-143.164 148.871-148.382zM839.582 314.945l-640.815-146.589 340.79 289.753 73.539-54.787 66.201 60.82z" />
<glyph unicode="&#xe90c;" glyph-name="sector" d="M635.108 769.386c-101.585 0-183.929-82.344-183.929-183.929 0 0-0.163-2.772 0.163-8.153 0.652-13.208 2.446-25.926 5.707-38.155 9.131-41.417 32.448-108.27 91.312-190.614 62.777-83.811 86.583-94.736 86.583-94.736s22.828 13.045 84.138 97.019c45.004 68.81 73.376 103.378 89.845 174.961 6.359 18.589 9.946 38.645 9.946 59.516 0.163 101.748-82.181 184.092-183.766 184.092zM633.967 474.741c-62.451 0-112.999 50.548-112.999 112.999s50.548 112.999 112.999 112.999 112.999-50.548 112.999-112.999c0-62.451-50.548-112.999-112.999-112.999zM475.475 412.127l-21.85-104.846-278.665 30.655 40.112 136.153c2.446 8.153 9.946 13.86 18.589 13.86h207.898c-0.163 0 8.805-34.894 33.916-75.822zM441.559 251.516l-25.763-122.782h-276.056c-13.045 0-22.339 12.555-18.589 24.948l37.992 128.489 282.415-30.655zM498.466 245.157l302.797-32.611 16.795-59.679c3.424-12.066-5.707-23.969-18.099-23.969h-326.604l25.111 116.26zM783.654 271.083l-25.111 85.442-57.396-76.311zM553.743 296.52l-34.894 46.634-8.316-42.721z" />
<glyph unicode="&#xe90d;" glyph-name="marca" d="M570.864 787.159c-133.707 0-242.14-108.433-242.14-242.14 0 0-0.163-3.75 0.326-10.762 0.815-17.284 3.261-34.079 7.501-50.385 12.066-54.624 42.721-142.675 120.336-250.945 82.833-110.39 114.14-124.739 114.14-124.739s30.003 17.121 110.716 127.837c59.19 90.66 96.693 136.153 118.38 230.563 8.479 24.622 13.045 50.874 13.045 78.431 0 133.707-108.433 242.14-242.303 242.14zM569.396 399.083c-82.181 0-148.871 66.69-148.871 148.871s66.69 148.871 148.871 148.871 148.871-66.69 148.871-148.871c0-82.181-66.69-148.871-148.871-148.871z" />
<glyph unicode="&#xe90e;" glyph-name="fax" horiz-adv-x="1227" d="M931.033 491.456h-19.335v311.516c0 31.249-25.195 56.444-56.444 56.444h-490.418c-31.249 0-56.444-25.195-56.444-56.444v-311.516h-19.531c-68.358 0-123.825-55.467-123.825-123.825v-179.683c0-68.358 55.467-123.825 123.825-123.825h642.368c68.358 0 123.825 55.467 123.825 123.825v179.683c0 68.358-55.467 123.825-124.021 123.825zM348.039 794.183c0 14.062 11.328 25.39 25.39 25.39h473.817c14.062 0 25.39-11.328 25.39-25.39v-302.727h-524.597v302.727zM895.487 204.744c-8.203-10.156-32.226-30.273-32.226-30.273s-6.25-5.664-13.086-5.664c-6.836 0-15.625 5.664-15.625 5.664s-74.608 35.546-91.404 43.944c-16.796 8.203-14.843 27.929-14.843 27.929s-0.977 19.531-0.195 36.132c0.781 16.601 0 19.14-27.538 27.538-46.679 15.82-94.529 13.476-94.529 13.476-53.319 0.781-115.818-19.14-115.818-19.14s-8.594-3.906-10.351-16.211c-1.758-12.304 3.516-33.593 4.687-58.006 0.977-24.218-16.015-25.781-16.015-25.781s-103.513-30.273-112.497-29.296c-8.984 0.977-37.109 36.132-37.109 57.421-0.391 37.109 17.187 66.014 28.906 84.959s36.327 32.812 62.694 46.093c83.201 48.241 195.503 43.749 195.503 43.749 79.686 0.391 156.051-25.781 205.855-44.921 49.999-19.14 67.186-53.71 79.295-79.295 11.914-25.585 12.5-68.163 4.297-78.319zM833.379 724.849h-446.084c-0.977 0-1.758 0.781-1.758 1.758v37.694c0 0.977 0.781 1.758 1.758 1.758h446.084c0.977 0 1.758-0.781 1.758-1.758v-37.694c0-0.977-0.781-1.758-1.758-1.758zM833.379 639.109h-446.084c-0.977 0-1.758 0.781-1.758 1.758v37.89c0 0.977 0.781 1.758 1.758 1.758h446.084c0.977 0 1.758-0.781 1.758-1.758v-37.694c0-0.977-0.781-1.953-1.758-1.953zM833.379 554.345h-446.084c-0.977 0-1.758 0.781-1.758 1.758v37.694c0 0.977 0.781 1.758 1.758 1.758h446.084c0.977 0 1.758-0.781 1.758-1.758v-37.694c0-0.781-0.781-1.758-1.758-1.758z" />
<glyph unicode="&#xe942;" glyph-name="phone" d="M704 320c-64-64-64-128-128-128s-128 64-192 128-128 128-128 192 64 64 128 128-128 256-192 256-192-192-192-192c0-128 131.5-387.5 256-512s384-256 512-256c0 0 192 128 192 192s-192 256-256 192z" />
<glyph unicode="&#xe9bd;" glyph-name="menu" d="M64 768h896v-192h-896zM64 512h896v-192h-896zM64 256h896v-192h-896z" />
<glyph unicode="&#xea91;" glyph-name="face" d="M928 960h-832c-52.8 0-96-43.2-96-96v-832c0-52.8 43.2-96 96-96h416v448h-128v128h128v64c0 105.8 86.2 192 192 192h128v-128h-128c-35.2 0-64-28.8-64-64v-64h192l-32-128h-160v-448h288c52.8 0 96 43.2 96 96v832c0 52.8-43.2 96-96 96z" />
<glyph unicode="&#xea92;" glyph-name="insta" d="M512 867.8c136.8 0 153-0.6 206.8-3 50-2.2 77-10.6 95-17.6 23.8-9.2 41-20.4 58.8-38.2 18-18 29-35 38.4-58.8 7-18 15.4-45.2 17.6-95 2.4-54 3-70.2 3-206.8s-0.6-153-3-206.8c-2.2-50-10.6-77-17.6-95-9.2-23.8-20.4-41-38.2-58.8-18-18-35-29-58.8-38.4-18-7-45.2-15.4-95-17.6-54-2.4-70.2-3-206.8-3s-153 0.6-206.8 3c-50 2.2-77 10.6-95 17.6-23.8 9.2-41 20.4-58.8 38.2-18 18-29 35-38.4 58.8-7 18-15.4 45.2-17.6 95-2.4 54-3 70.2-3 206.8s0.6 153 3 206.8c2.2 50 10.6 77 17.6 95 9.2 23.8 20.4 41 38.2 58.8 18 18 35 29 58.8 38.4 18 7 45.2 15.4 95 17.6 53.8 2.4 70 3 206.8 3zM512 960c-139 0-156.4-0.6-211-3-54.4-2.4-91.8-11.2-124.2-23.8-33.8-13.2-62.4-30.6-90.8-59.2-28.6-28.4-46-57-59.2-90.6-12.6-32.6-21.4-69.8-23.8-124.2-2.4-54.8-3-72.2-3-211.2s0.6-156.4 3-211c2.4-54.4 11.2-91.8 23.8-124.2 13.2-33.8 30.6-62.4 59.2-90.8 28.4-28.4 57-46 90.6-59 32.6-12.6 69.8-21.4 124.2-23.8 54.6-2.4 72-3 211-3s156.4 0.6 211 3c54.4 2.4 91.8 11.2 124.2 23.8 33.6 13 62.2 30.6 90.6 59s46 57 59 90.6c12.6 32.6 21.4 69.8 23.8 124.2 2.4 54.6 3 72 3 211s-0.6 156.4-3 211c-2.4 54.4-11.2 91.8-23.8 124.2-12.6 34-30 62.6-58.6 91-28.4 28.4-57 46-90.6 59-32.6 12.6-69.8 21.4-124.2 23.8-54.8 2.6-72.2 3.2-211.2 3.2v0zM512 711c-145.2 0-263-117.8-263-263s117.8-263 263-263 263 117.8 263 263c0 145.2-117.8 263-263 263zM512 277.4c-94.2 0-170.6 76.4-170.6 170.6s76.4 170.6 170.6 170.6c94.2 0 170.6-76.4 170.6-170.6s-76.4-170.6-170.6-170.6zM846.8 721.4c0-33.91-27.49-61.4-61.4-61.4s-61.4 27.49-61.4 61.4c0 33.91 27.49 61.4 61.4 61.4s61.4-27.49 61.4-61.4z" />
<glyph unicode="&#xea93;" glyph-name="what" d="M873 811.2c-95.8 96-223.2 148.8-359 148.8-279.6 0-507.2-227.6-507.2-507.4 0-89.4 23.4-176.8 67.8-253.6l-72-263 269 70.6c74.2-40.4 157.6-61.8 242.4-61.8h0.2c0 0 0 0 0 0 279.6 0 507.4 227.6 507.4 507.4 0 135.6-52.8 263-148.6 359zM514.2 30.4v0c-75.8 0-150 20.4-214.8 58.8l-15.4 9.2-159.6-41.8 42.6 155.6-10 16c-42.4 67-64.6 144.6-64.6 224.4 0 232.6 189.2 421.8 422 421.8 112.6 0 218.6-44 298.2-123.6 79.6-79.8 123.4-185.6 123.4-298.4-0.2-232.8-189.4-422-421.8-422zM745.4 346.4c-12.6 6.4-75 37-86.6 41.2s-20 6.4-28.6-6.4c-8.4-12.6-32.8-41.2-40.2-49.8-7.4-8.4-14.8-9.6-27.4-3.2s-53.6 19.8-102 63c-37.6 33.6-63.2 75.2-70.6 87.8s-0.8 19.6 5.6 25.8c5.8 5.6 12.6 14.8 19 22.2s8.4 12.6 12.6 21.2c4.2 8.4 2.2 15.8-1 22.2s-28.6 68.8-39 94.2c-10.2 24.8-20.8 21.4-28.6 21.8-7.4 0.4-15.8 0.4-24.2 0.4s-22.2-3.2-33.8-15.8c-11.6-12.6-44.4-43.4-44.4-105.8s45.4-122.6 51.8-131.2c6.4-8.4 89.4-136.6 216.6-191.4 30.2-13 53.8-20.8 72.2-26.8 30.4-9.6 58-8.2 79.8-5 24.4 3.6 75 30.6 85.6 60.2s10.6 55 7.4 60.2c-3 5.6-11.4 8.8-24.2 15.2z" />
<glyph unicode="&#xea96;" glyph-name="twi" d="M1024 733.6c-37.6-16.8-78.2-28-120.6-33 43.4 26 76.6 67.2 92.4 116.2-40.6-24-85.6-41.6-133.4-51-38.4 40.8-93 66.2-153.4 66.2-116 0-210-94-210-210 0-16.4 1.8-32.4 5.4-47.8-174.6 8.8-329.4 92.4-433 219.6-18-31-28.4-67.2-28.4-105.6 0-72.8 37-137.2 93.4-174.8-34.4 1-66.8 10.6-95.2 26.2 0-0.8 0-1.8 0-2.6 0-101.8 72.4-186.8 168.6-206-17.6-4.8-36.2-7.4-55.4-7.4-13.6 0-26.6 1.4-39.6 3.8 26.8-83.4 104.4-144.2 196.2-146-72-56.4-162.4-90-261-90-17 0-33.6 1-50.2 3 93.2-59.8 203.6-94.4 322.2-94.4 386.4 0 597.8 320.2 597.8 597.8 0 9.2-0.2 18.2-0.6 27.2 41 29.4 76.6 66.4 104.8 108.6z" />
<glyph unicode="&#xea9d;" glyph-name="youtube" d="M1013.8 652.8c0 0-10 70.6-40.8 101.6-39 40.8-82.6 41-102.6 43.4-143.2 10.4-358.2 10.4-358.2 10.4h-0.4c0 0-215 0-358.2-10.4-20-2.4-63.6-2.6-102.6-43.4-30.8-31-40.6-101.6-40.6-101.6s-10.2-82.8-10.2-165.8v-77.6c0-82.8 10.2-165.8 10.2-165.8s10-70.6 40.6-101.6c39-40.8 90.2-39.4 113-43.8 82-7.8 348.2-10.2 348.2-10.2s215.2 0.4 358.4 10.6c20 2.4 63.6 2.6 102.6 43.4 30.8 31 40.8 101.6 40.8 101.6s10.2 82.8 10.2 165.8v77.6c-0.2 82.8-10.4 165.8-10.4 165.8zM406.2 315.2v287.8l276.6-144.4-276.6-143.4z" />
<glyph unicode="&#xeaa3;" glyph-name="flickr2" d="M0 416c0 123.712 100.288 224 224 224s224-100.288 224-224c0-123.712-100.288-224-224-224s-224 100.288-224 224zM576 416c0 123.712 100.288 224 224 224s224-100.288 224-224c0-123.712-100.288-224-224-224s-224 100.288-224 224z" />
<glyph unicode="&#xeaa5;" glyph-name="flickr" d="M928 960h-832c-52.8 0-96-43.2-96-96v-832c0-52.8 43.2-96 96-96h832c52.8 0 96 43.2 96 96v832c0 52.8-43.2 96-96 96zM288 288c-88.4 0-160 71.6-160 160s71.6 160 160 160 160-71.6 160-160-71.6-160-160-160zM736 288c-88.4 0-160 71.6-160 160s71.6 160 160 160c88.4 0 160-71.6 160-160s-71.6-160-160-160z" />
<glyph unicode="&#xeac9;" glyph-name="linkedin" d="M928 960h-832c-52.8 0-96-43.2-96-96v-832c0-52.8 43.2-96 96-96h832c52.8 0 96 43.2 96 96v832c0 52.8-43.2 96-96 96zM384 128h-128v448h128v-448zM320 640c-35.4 0-64 28.6-64 64s28.6 64 64 64c35.4 0 64-28.6 64-64s-28.6-64-64-64zM832 128h-128v256c0 35.4-28.6 64-64 64s-64-28.6-64-64v-256h-128v448h128v-79.4c26.4 36.2 66.8 79.4 112 79.4 79.6 0 144-71.6 144-160v-288z" />
</font>
</defs>
</svg>
