<?xml version="1.0" encoding="iso-8859-1"?>
<!-- Generator: Adobe Illustrator 18.1.1, SVG Export Plug-In . SVG Version: 6.00 Build 0)  -->
<svg version="1.1" id="Capa_1" xmlns="http://www.w3.org/2000/svg" xmlns:xlink="http://www.w3.org/1999/xlink" x="0px" y="0px"
	 viewBox="0 338.214 900 223.572" style="enable-background:new 0 338.214 900 223.572;" xml:space="preserve">
<path style="fill:#B988FF;" d="M829.021,561.786H70.979C31.779,561.786,0,530.007,0,490.807v-81.614
	c0-39.2,31.779-70.979,70.979-70.979h758.038c39.2,0,70.979,31.779,70.979,70.979v81.614
	C900,530.007,868.221,561.786,829.021,561.786z"/>
<g>
	<path style="fill:#FFFFFF;" d="M129.891,450.191H93.695v33.571h40.341v10.085h-52.36v-93.115h50.288v10.085H93.695v29.426h36.196
		V450.191z"/>
	<path style="fill:#FFFFFF;" d="M149.229,445.08c0-6.908-0.138-12.572-0.552-18.098h10.776l0.69,11.052h0.276
		c3.316-6.355,11.052-12.572,22.104-12.572c9.256,0,23.625,5.526,23.625,28.46v39.926H193.99v-38.545
		c0-10.776-4.006-19.756-15.473-19.756c-8.013,0-14.229,5.665-16.302,12.434c-0.553,1.521-0.829,3.593-0.829,5.665v40.202h-12.158
		V445.08z"/>
	<path style="fill:#FFFFFF;" d="M228.803,426.981l13.125,37.578c2.21,6.078,4.007,11.604,5.388,17.131h0.415
		c1.52-5.526,3.454-11.053,5.664-17.131l12.986-37.578h12.71l-26.25,66.866h-11.604l-25.42-66.866H228.803z"/>
	<path style="fill:#FFFFFF;" d="M304.093,408.193c0.138,4.145-2.901,7.46-7.736,7.46c-4.283,0-7.322-3.315-7.322-7.46
		c0-4.283,3.178-7.599,7.599-7.599C301.192,400.594,304.093,403.91,304.093,408.193z M290.554,493.848v-66.866h12.158v66.866
		H290.554z"/>
	<path style="fill:#FFFFFF;" d="M359.905,493.848l-0.967-8.428h-0.415c-3.73,5.25-10.914,9.947-20.446,9.947
		c-13.539,0-20.447-9.532-20.447-19.203c0-16.164,14.368-25.006,40.203-24.867v-1.382c0-5.526-1.52-15.473-15.197-15.473
		c-6.217,0-12.71,1.934-17.407,4.974l-2.763-8.013c5.526-3.592,13.539-5.94,21.966-5.94c20.446,0,25.42,13.954,25.42,27.354v25.006
		c0,5.802,0.276,11.467,1.105,16.025H359.905z M358.109,459.724c-13.263-0.276-28.322,2.072-28.322,15.059
		c0,7.875,5.25,11.605,11.467,11.605c8.704,0,14.23-5.526,16.164-11.19c0.415-1.244,0.691-2.625,0.691-3.868V459.724z"/>
	<path style="fill:#FFFFFF;" d="M389.467,447.843c0-7.875-0.138-14.645-0.552-20.861h10.638l0.415,13.125h0.552
		c3.04-8.98,10.362-14.644,18.513-14.644c1.381,0,2.349,0.138,3.454,0.415v11.467c-1.243-0.276-2.486-0.415-4.145-0.415
		c-8.565,0-14.644,6.493-16.302,15.611c-0.276,1.657-0.553,3.592-0.553,5.664v35.644h-12.02V447.843z"/>
</g>
</svg>
