<?xml version="1.0" encoding="iso-8859-1"?>
<!-- Generator: Adobe Illustrator 18.1.1, SVG Export Plug-In . SVG Version: 6.00 Build 0)  -->
<svg version="1.1" id="Capa_1" xmlns="http://www.w3.org/2000/svg" xmlns:xlink="http://www.w3.org/1999/xlink" x="0px" y="0px"
	 viewBox="0 0 517.819 128.633" style="enable-background:new 0 0 517.819 128.633;" xml:space="preserve">
<path style="fill:#BCCF04;" d="M499.084,128.633H18.735C8.388,128.633,0,120.245,0,109.898V18.735C0,8.388,8.388,0,18.735,0h480.349
	c10.347,0,18.735,8.388,18.735,18.735v91.163C517.819,120.245,509.431,128.633,499.084,128.633z"/>
<g>
	<path style="fill:#FFFFFF;" d="M476.51,38.687l-8.083-0.003c-0.882,0-1.596-0.715-1.596-1.597l0.003-8.183
		c0-0.882,0.715-1.596,1.597-1.596l8.083,0.003c0.882,0,1.596,0.715,1.596,1.597l-0.003,8.183
		C478.107,37.973,477.392,38.687,476.51,38.687z"/>
	<path style="fill:#FFFFFF;" d="M465.739,27.309l-5.49-0.002c-0.599,0-1.084-0.486-1.084-1.085l0.002-5.558
		c0-0.599,0.486-1.084,1.085-1.084l5.49,0.002c0.599,0,1.084,0.486,1.084,1.085l-0.002,5.558
		C466.824,26.824,466.338,27.309,465.739,27.309z"/>
	<path style="fill:#FFFFFF;" d="M316.225,42.334h-11.756c-6.282,0-9.084,2.801-9.084,9.084v40.35c0,2.427,0.779,3.206,3.206,3.206
		h0.794c2.427,0,3.206-0.779,3.206-3.206V76.069h13.633c12.104,0,17.741-5.36,17.741-16.867
		C333.966,47.694,328.329,42.334,316.225,42.334z M326.76,59.202c0,6.575-1.679,10.138-10.535,10.138h-13.633V52.371
		c0-2.353,0.875-3.228,3.228-3.228h10.405C322.897,49.143,326.76,50.789,326.76,59.202z M349.107,53.905
		c-4.659,0-7.578,0.584-8.686,0.806c-1.961,0.426-2.781,0.964-2.781,3.194v0.635c0,0.873,0.129,1.479,0.407,1.905
		c0.323,0.496,0.843,0.748,1.547,0.748c0.344,0,0.741-0.058,1.216-0.176c1.12-0.28,4.699-0.859,8.614-0.859
		c7.032,0,9.9,1.948,9.9,6.723v4.26h-8.867c-11.399,0-16.708,3.845-16.708,12.102c0,8.009,5.483,12.419,15.438,12.419
		c11.83,0,17.106-4.026,17.106-13.055V66.88C366.292,58.149,360.671,53.905,349.107,53.905z M359.324,76.838v5.531
		c0,4.509-1.672,7.12-10.218,7.12c-5.646,0-8.391-2.043-8.391-6.246c0-4.609,2.753-6.405,9.82-6.405H359.324z M405.436,58.308
		l-9.137,36.546c-2.678,10.714-7.254,15.312-15.795,15.87c-0.223,0.019-0.431,0.029-0.624,0.029c-1.84,0-2.421-1.016-2.763-2.655
		l-0.157-0.708c-0.156-0.748-0.255-1.585,0.181-2.169c0.421-0.564,1.175-0.729,2.335-0.826c5.72-0.587,7.66-3.232,9.566-9.229
		c-0.903,0.305-1.988,0.467-3.161,0.467c-6.286,0-7.969-4.378-9.384-9.668l-7.545-27.639c-0.253-0.938-0.418-1.893,0.072-2.533
		c0.49-0.639,1.443-0.727,2.401-0.727h0.636c2.373,0,3.285,0.7,3.903,2.995l7.466,27.401c0.966,3.418,1.935,3.996,4.358,3.996
		c1.979,0,3.134-0.616,3.957-3.983l6.592-27.401c0.525-2.276,1.455-3.008,3.827-3.008h0.715c0.952,0,1.902,0.087,2.404,0.718
		C405.783,56.416,405.652,57.37,405.436,58.308z M459.143,47.631v10.541v11.09v6.077c0,4.457-1.005,8.231-2.948,11.273
		c-3.751,5.895-11.017,9.035-21.347,9.035c0,0-0.025-0.001-0.038-0.001l-0.038,0.001c-10.33,0-17.596-3.14-21.347-9.035
		c-1.943-3.042-2.948-6.816-2.948-11.273v-6.077v-11.09V47.631c0-4.476,1.827-5.287,6.742-5.287h1.547
		c4.914,0,6.742,0.811,6.742,5.287v10.475c0.001,0.022,0.003,0.044,0.003,0.067v2.296c0.001,0.08,0.006,0.154,0.006,0.236v14.635
		c0,1.789,0.345,3.213,1.057,4.319c1.34,2.063,3.992,3,8.235,3.006c4.244-0.006,6.897-0.944,8.237-3.008
		c0.711-1.106,1.055-2.529,1.055-4.317V60.703c0-0.082,0.005-0.156,0.006-0.236v-2.296c0-0.023,0.003-0.044,0.003-0.067V47.631
		c0-4.476,1.827-5.287,6.742-5.287h1.547C457.315,42.344,459.143,43.155,459.143,47.631z"/>
	<path style="fill:#FFFFFF;" d="M464.674,53.996l-10.883-0.004c-1.187,0-2.149-0.963-2.148-2.15l0.004-11.018
		c0-1.187,0.963-2.149,2.15-2.148l10.883,0.004c1.187,0,2.149,0.963,2.148,2.15l-0.004,11.018
		C466.824,53.035,465.861,53.997,464.674,53.996z"/>
	<path style="fill:#DFE77F;" d="M452.401,42.334h-0.755l-0.003,9.499c0,1.187,0.962,2.15,2.148,2.15l5.352,0.002v-6.364
		C459.143,43.145,457.315,42.334,452.401,42.334z"/>
</g>
<g>
	<path style="fill:#FFFFFF;" d="M41.029,48.654c2.204-0.367,5.09-0.683,8.763-0.683c4.513,0,7.819,1.05,9.917,2.938
		c1.942,1.68,3.096,4.251,3.096,7.399c0,3.201-0.944,5.72-2.729,7.557c-2.414,2.571-6.35,3.883-10.81,3.883
		c-1.364,0-2.624-0.053-3.673-0.314v14.168h-4.565V48.654z M45.594,65.708c0.997,0.262,2.257,0.367,3.778,0.367
		c5.51,0,8.868-2.677,8.868-7.557c0-4.67-3.306-6.927-8.343-6.927c-1.994,0-3.516,0.157-4.303,0.367V65.708z"/>
	<path style="fill:#FFFFFF;" d="M81.487,83.602l-0.367-3.201h-0.158c-1.417,1.994-4.146,3.778-7.766,3.778
		c-5.143,0-7.767-3.621-7.767-7.294c0-6.14,5.458-9.499,15.271-9.446v-0.525c0-2.099-0.577-5.877-5.772-5.877
		c-2.361,0-4.828,0.735-6.612,1.89l-1.049-3.044c2.099-1.364,5.143-2.257,8.343-2.257c7.767,0,9.656,5.301,9.656,10.391v9.499
		c0,2.204,0.105,4.355,0.419,6.087H81.487z M80.805,70.642c-5.038-0.105-10.757,0.787-10.757,5.72c0,2.991,1.994,4.407,4.355,4.407
		c3.306,0,5.405-2.099,6.139-4.25c0.158-0.473,0.263-0.997,0.263-1.47V70.642z"/>
	<path style="fill:#FFFFFF;" d="M114.598,58.205c-0.105,1.836-0.21,3.883-0.21,6.979V79.93c0,5.824-1.154,9.393-3.621,11.597
		c-2.466,2.309-6.034,3.043-9.235,3.043c-3.043,0-6.402-0.734-8.448-2.099l1.154-3.516c1.679,1.05,4.303,1.994,7.451,1.994
		c4.723,0,8.187-2.467,8.187-8.868v-2.834h-0.105c-1.417,2.361-4.146,4.251-8.082,4.251c-6.297,0-10.81-5.353-10.81-12.385
		c0-8.606,5.615-13.487,11.439-13.487c4.408,0,6.822,2.31,7.924,4.408h0.105l0.21-3.83H114.598z M109.823,68.227
		c0-0.787-0.052-1.47-0.262-2.1c-0.84-2.676-3.096-4.88-6.455-4.88c-4.408,0-7.556,3.726-7.556,9.604c0,4.984,2.519,9.13,7.504,9.13
		c2.833,0,5.405-1.784,6.402-4.723c0.262-0.787,0.367-1.679,0.367-2.466V68.227z"/>
	<path style="fill:#FFFFFF;" d="M136.112,83.602l-0.367-3.201h-0.157c-1.417,1.994-4.146,3.778-7.767,3.778
		c-5.143,0-7.767-3.621-7.767-7.294c0-6.14,5.458-9.499,15.271-9.446v-0.525c0-2.099-0.577-5.877-5.772-5.877
		c-2.361,0-4.827,0.735-6.611,1.89l-1.05-3.044c2.099-1.364,5.143-2.257,8.344-2.257c7.766,0,9.655,5.301,9.655,10.391v9.499
		c0,2.204,0.104,4.355,0.42,6.087H136.112z M135.429,70.642c-5.037-0.105-10.757,0.787-10.757,5.72c0,2.991,1.994,4.407,4.355,4.407
		c3.306,0,5.404-2.099,6.14-4.25c0.157-0.473,0.262-0.997,0.262-1.47V70.642z"/>
	<path style="fill:#FFFFFF;" d="M176.569,82.658c-1.207,0.63-3.883,1.469-7.294,1.469c-7.661,0-12.646-5.194-12.646-12.961
		c0-7.819,5.353-13.487,13.644-13.487c2.729,0,5.143,0.683,6.401,1.312l-1.049,3.568c-1.103-0.63-2.834-1.207-5.353-1.207
		c-5.825,0-8.974,4.303-8.974,9.603c0,5.877,3.778,9.498,8.816,9.498c2.623,0,4.355-0.683,5.667-1.26L176.569,82.658z"/>
	<path style="fill:#FFFFFF;" d="M204.642,70.693c0,9.394-6.507,13.486-12.646,13.486c-6.874,0-12.174-5.037-12.174-13.066
		c0-8.501,5.562-13.487,12.594-13.487C199.709,57.626,204.642,62.927,204.642,70.693z M184.492,70.956
		c0,5.562,3.201,9.761,7.714,9.761c4.408,0,7.714-4.146,7.714-9.865c0-4.304-2.151-9.761-7.608-9.761
		C186.853,61.09,184.492,66.127,184.492,70.956z"/>
	<path style="fill:#FFFFFF;" d="M210.467,65.079c0-2.624-0.053-4.775-0.21-6.874h4.093l0.263,4.197h0.104
		c1.26-2.413,4.198-4.775,8.396-4.775c3.516,0,8.973,2.1,8.973,10.811v15.166h-4.617V68.961c0-4.093-1.522-7.504-5.878-7.504
		c-3.043,0-5.404,2.151-6.191,4.723c-0.21,0.577-0.315,1.364-0.315,2.151v15.271h-4.617V65.079z"/>
</g>
<g>
</g>
<g>
</g>
<g>
</g>
<g>
</g>
<g>
</g>
<g>
</g>
</svg>
