<?xml version="1.0" encoding="utf-8"?>
<!-- Generator: Adobe Illustrator 18.1.1, SVG Export Plug-In . SVG Version: 6.00 Build 0)  -->
<svg version="1.2" baseProfile="tiny" id="Capa_1" xmlns="http://www.w3.org/2000/svg" xmlns:xlink="http://www.w3.org/1999/xlink"
	 x="0px" y="0px" viewBox="0 0 469.6 81.1" xml:space="preserve">
<rect x="-1" y="0" fill="none" width="470.6" height="82.1"/>
<g>
	<text transform="matrix(1 0 0 1 102.5065 69.8809)" fill="#FFFFFF" font-family="'Aller'" font-size="39.4548">P</text>
	<text transform="matrix(1 0 0 1 124.8375 69.8809)" fill="#FFFFFF" font-family="'Aller'" font-size="39.4548">r</text>
	<text transform="matrix(1 0 0 1 138.922 69.8809)" fill="#FFFFFF" font-family="'Aller'" font-size="39.4548">o</text>
	<text transform="matrix(1 0 0 1 161.6876 69.8809)" fill="#FFFFFF" font-family="'Aller'" font-size="39.4548"> </text>
	<text transform="matrix(1 0 0 1 171.0382 69.8809)" fill="#FFFFFF" font-family="'Aller'" font-size="39.4548">M</text>
	<text transform="matrix(1 0 0 1 203.2325 69.8809)" fill="#FFFFFF" font-family="'Aller'" font-size="39.4548">e</text>
	<text transform="matrix(1 0 0 1 225.17 69.8809)" fill="#FFFFFF" font-family="'Aller'" font-size="39.4548">d</text>
	<text transform="matrix(1 0 0 1 248.2902 69.8809)" fill="#FFFFFF" font-family="'Aller'" font-size="39.4548">i</text>
	<text transform="matrix(1 0 0 1 259.6525 69.8809)" fill="#FFFFFF" font-family="'Aller'" font-size="39.4548">o</text>
	<text transform="matrix(1 0 0 1 282.4181 69.8809)" fill="#FFFFFF" font-family="'Aller'" font-size="39.4548">s</text>
	<text transform="matrix(1 0 0 1 300.3693 69.8809)" fill="#FFFFFF" font-family="'Aller'" font-size="39.4548"> </text>
	<text transform="matrix(1 0 0 1 309.7198 69.8809)" fill="#FFFFFF" font-family="'Aller'" font-size="39.4548">D</text>
	<text transform="matrix(1 0 0 1 337.299 69.8809)" fill="#FFFFFF" font-family="'Aller'" font-size="39.4548">i</text>
	<text transform="matrix(1 0 0 1 348.6613 69.8809)" fill="#FFFFFF" font-family="'Aller'" font-size="39.4548">g</text>
	<text transform="matrix(1 0 0 1 370.4796 69.8809)" fill="#FFFFFF" font-family="'Aller'" font-size="39.4548">i</text>
	<text transform="matrix(1 0 0 1 381.8429 69.8809)" fill="#FFFFFF" font-family="'Aller'" font-size="39.4548">t</text>
	<text transform="matrix(1 0 0 1 395.9669 69.8809)" fill="#FFFFFF" font-family="'Aller'" font-size="39.4548">a</text>
	<text transform="matrix(1 0 0 1 416.3644 69.8809)" fill="#FFFFFF" font-family="'Aller'" font-size="39.4548">l</text>
	<text transform="matrix(1 0 0 1 428.1212 69.8809)" fill="#FFFFFF" font-family="'Aller'" font-size="39.4548">e</text>
	<text transform="matrix(1 0 0 1 450.0587 69.8809)" fill="#FFFFFF" font-family="'Aller'" font-size="39.4548">s</text>
	<g>
		<polygon fill="#F0F0F0" points="101.7,2.2 87.9,74.1 59.3,57.8 		"/>
		<polygon fill="#F0F0F0" points="1,41.8 101.7,2.2 30.9,45.5 		"/>
		<polygon fill="#BABABA" points="46.1,75.9 30.9,45.5 101.7,2.2 53.7,54.3 		"/>
		<polygon fill="#D6D6D6" points="59.3,57.8 53.7,54.3 101.7,2.2 		"/>
		<polygon fill="#878787" points="46.1,75.9 59.3,57.8 53.7,54.3 		"/>
	</g>
</g>
</svg>
